<svg xmlns:xlink="http://www.w3.org/1999/xlink" xmlns="http://www.w3.org/2000/svg" viewBox="0 0 512 512" width="16" height="16" aria-hidden="true" class="$w-[1em] $h-[1em] $fill-current $text-sm $text-yellowPremium"><path d="M486.2 50.2c-9.6-3.8-20.5-1.3-27.5 6.2l-98.2 125.5-83-161.1C273 13.2 264.9 8.5 256 8.5s-17.1 4.7-21.5 12.3l-83 161.1L53.3 56.5c-7-7.5-17.9-10-27.5-6.2C16.3 54 10 63.2 10 73.5v333c0 35.8 29.2 65 65 65h362c35.8 0 65-29.2 65-65v-333c0-10.3-6.3-19.5-15.8-23.3" fill="#FEB602"></path></svg>